<svg width="1287" height="681" xmlns="http://www.w3.org/2000/svg"><g><path d="M-78,-17L-80,682L-77,461Z" fill="#957f8b" stroke="#957f8b"/><path d="M-78,-17L-77,461L-47,258Z" fill="#9e797a" stroke="#9e797a"/><path d="M-78,-17L-47,258L-49,141Z" fill="#a13c3d" stroke="#a13c3d"/><path d="M-78,-17L-49,141L-19,82Z" fill="#911629" stroke="#911629"/><path d="M-78,-17L-19,82L43,46Z" fill="#860b25" stroke="#860b25"/><path d="M-78,-17L43,46L47,-82Z" fill="#660120" stroke="#660120"/><path d="M47,-82L43,46L168,-63Z" fill="#750923" stroke="#750923"/><path d="M47,-82L168,-63L275,-62Z" fill="#6c1b27" stroke="#6c1b27"/><path d="M47,-82L275,-62L727,-67Z" fill="#85524b" stroke="#85524b"/><path d="M47,-82L727,-67L1015,-84Z" fill="#7f7b85" stroke="#7f7b85"/><path d="M168,-63L43,46L135,68Z" fill="#a2112a" stroke="#a2112a"/><path d="M168,-63L135,68L242,17Z" fill="#a62233" stroke="#a62233"/><path d="M168,-63L242,17L275,-62Z" fill="#8e2f34" stroke="#8e2f34"/><path d="M275,-62L242,17L351,-42Z" fill="#9b4142" stroke="#9b4142"/><path d="M275,-62L351,-42L455,-38Z" fill="#965551" stroke="#965551"/><path d="M275,-62L455,-38L727,-67Z" fill="#947073" stroke="#947073"/><path d="M351,-42L242,17L371,26Z" fill="#b44a4d" stroke="#b44a4d"/><path d="M351,-42L371,26L455,-38Z" fill="#ac5c5e" stroke="#ac5c5e"/><path d="M455,-38L371,26L454,57Z" fill="#c6686c" stroke="#c6686c"/><path d="M455,-38L454,57L548,-31Z" fill="#b97079" stroke="#b97079"/><path d="M455,-38L548,-31L727,-67Z" fill="#997b88" stroke="#997b88"/><path d="M548,-31L454,57L570,19Z" fill="#c67883" stroke="#c67883"/><path d="M548,-31L570,19L626,-33Z" fill="#ae7b8c" stroke="#ae7b8c"/><path d="M548,-31L626,-33L727,-67Z" fill="#927888" stroke="#927888"/><path d="M626,-33L570,19L633,62Z" fill="#c17e90" stroke="#c17e90"/><path d="M626,-33L633,62L727,-67Z" fill="#a4768a" stroke="#a4768a"/><path d="M727,-67L633,62L734,84Z" fill="#ba7b8e" stroke="#ba7b8e"/><path d="M727,-67L734,84L855,35Z" fill="#a06e87" stroke="#a06e87"/><path d="M727,-67L855,35L877,-56Z" fill="#72637e" stroke="#72637e"/><path d="M727,-67L877,-56L1015,-84Z" fill="#435774" stroke="#435774"/><path d="M877,-56L855,35L976,-34Z" fill="#5e5176" stroke="#5e5176"/><path d="M877,-56L976,-34L1015,-84Z" fill="#33466c" stroke="#33466c"/><path d="M976,-34L855,35L981,38Z" fill="#694d76" stroke="#694d76"/><path d="M976,-34L981,38L1019,52Z" fill="#654471" stroke="#654471"/><path d="M976,-34L1019,52L1015,-84Z" fill="#453d6b" stroke="#453d6b"/><path d="M1015,-84L1019,52L1119,40Z" fill="#513569" stroke="#513569"/><path d="M1015,-84L1119,40L1181,-44Z" fill="#332755" stroke="#332755"/><path d="M1015,-84L1181,-44L1216,-49Z" fill="#1a2047" stroke="#1a2047"/><path d="M1015,-84L1216,-49L1369,-38Z" fill="#151133" stroke="#151133"/><path d="M1181,-44L1119,40L1230,54Z" fill="#4b1b43" stroke="#4b1b43"/><path d="M1181,-44L1230,54L1216,-49Z" fill="#340f35" stroke="#340f35"/><path d="M1216,-49L1230,54L1324,36Z" fill="#480829" stroke="#480829"/><path d="M1216,-49L1324,36L1369,-38Z" fill="#320017" stroke="#320017"/><path d="M1369,-38L1324,36L1356,157Z" fill="#630f19" stroke="#630f19"/><path d="M1369,-38L1356,157L1374,437Z" fill="#80624e" stroke="#80624e"/><path d="M-19,82L-49,141L49,146Z" fill="#b1393d" stroke="#b1393d"/><path d="M-19,82L49,146L43,46Z" fill="#b02734" stroke="#b02734"/><path d="M43,46L49,146L135,68Z" fill="#bf2a35" stroke="#bf2a35"/><path d="M135,68L49,146L142,160Z" fill="#d64544" stroke="#d64544"/><path d="M135,68L142,160L255,135Z" fill="#e1564c" stroke="#e1564c"/><path d="M135,68L255,135L242,17Z" fill="#d64241" stroke="#d64241"/><path d="M242,17L255,135L332,120Z" fill="#e56153" stroke="#e56153"/><path d="M242,17L332,120L371,26Z" fill="#da5852" stroke="#da5852"/><path d="M371,26L332,120L426,140Z" fill="#f1806d" stroke="#f1806d"/><path d="M371,26L426,140L454,57Z" fill="#eb7b72" stroke="#eb7b72"/><path d="M454,57L426,140L536,136Z" fill="#fa9f8f" stroke="#fa9f8f"/><path d="M454,57L536,136L570,19Z" fill="#ea8b8b" stroke="#ea8b8b"/><path d="M570,19L536,136L633,62Z" fill="#e99398" stroke="#e99398"/><path d="M633,62L536,136L629,122Z" fill="#f3a9a4" stroke="#f3a9a4"/><path d="M633,62L629,122L734,84Z" fill="#e2999c" stroke="#e2999c"/><path d="M734,84L629,122L745,154Z" fill="#e7a9a5" stroke="#e7a9a5"/><path d="M734,84L745,154L855,35Z" fill="#c88c95" stroke="#c88c95"/><path d="M855,35L745,154L877,184Z" fill="#c69b9d" stroke="#c69b9d"/><path d="M855,35L877,184L970,116Z" fill="#a98290" stroke="#a98290"/><path d="M855,35L970,116L981,38Z" fill="#8c5c7c" stroke="#8c5c7c"/><path d="M981,38L970,116L1019,52Z" fill="#865578" stroke="#865578"/><path d="M1019,52L970,116L1035,171Z" fill="#936e85" stroke="#936e85"/><path d="M1019,52L1035,171L1134,127Z" fill="#8d667f" stroke="#8d667f"/><path d="M1019,52L1134,127L1119,40Z" fill="#7a4367" stroke="#7a4367"/><path d="M1119,40L1134,127L1230,54Z" fill="#723351" stroke="#723351"/><path d="M1230,54L1134,127L1224,117Z" fill="#773c4e" stroke="#773c4e"/><path d="M1230,54L1224,117L1324,36Z" fill="#6d1a30" stroke="#6d1a30"/><path d="M1324,36L1224,117L1356,157Z" fill="#792c2e" stroke="#792c2e"/><path d="M-49,141L-47,258L49,146Z" fill="#ae605a" stroke="#ae605a"/><path d="M49,146L-47,258L54,282Z" fill="#b9797b" stroke="#b9797b"/><path d="M49,146L54,282L133,222Z" fill="#cc7976" stroke="#cc7976"/><path d="M49,146L133,222L142,160Z" fill="#d6675e" stroke="#d6675e"/><path d="M142,160L133,222L255,135Z" fill="#e27865" stroke="#e27865"/><path d="M255,135L133,222L280,282Z" fill="#e99c85" stroke="#e99c85"/><path d="M255,135L280,282L352,235Z" fill="#f3b497" stroke="#f3b497"/><path d="M255,135L352,235L332,120Z" fill="#f59b7b" stroke="#f59b7b"/><path d="M332,120L352,235L426,140Z" fill="#faac8a" stroke="#faac8a"/><path d="M426,140L352,235L467,231Z" fill="#fcccad" stroke="#fcccad"/><path d="M426,140L467,231L536,136Z" fill="#fec6aa" stroke="#fec6aa"/><path d="M536,136L467,231L540,248Z" fill="#fddfc8" stroke="#fddfc8"/><path d="M536,136L540,248L629,122Z" fill="#fcd1bd" stroke="#fcd1bd"/><path d="M629,122L540,248L667,273Z" fill="#f7eadb" stroke="#f7eadb"/><path d="M629,122L667,273L721,248Z" fill="#ede5da" stroke="#ede5da"/><path d="M629,122L721,248L745,154Z" fill="#e9cec0" stroke="#e9cec0"/><path d="M745,154L721,248L819,256Z" fill="#d8ddd8" stroke="#d8ddd8"/><path d="M745,154L819,256L877,184Z" fill="#cacbc5" stroke="#cacbc5"/><path d="M877,184L819,256L960,282Z" fill="#b2d1da" stroke="#b2d1da"/><path d="M877,184L960,282L1035,171Z" fill="#9eb5bf" stroke="#9eb5bf"/><path d="M877,184L1035,171L970,116Z" fill="#9e949e" stroke="#9e949e"/><path d="M1035,171L960,282L1084,254Z" fill="#94b2c7" stroke="#94b2c7"/><path d="M1035,171L1084,254L1137,231Z" fill="#8c9eaf" stroke="#8c9eaf"/><path d="M1035,171L1137,231L1134,127Z" fill="#8a848f" stroke="#8a848f"/><path d="M1134,127L1137,231L1224,117Z" fill="#836972" stroke="#836972"/><path d="M1224,117L1137,231L1241,258Z" fill="#807b7f" stroke="#807b7f"/><path d="M1224,117L1241,258L1321,216Z" fill="#806b68" stroke="#806b68"/><path d="M1224,117L1321,216L1356,157Z" fill="#805449" stroke="#805449"/><path d="M1356,157L1321,216L1336,335Z" fill="#807a6f" stroke="#807a6f"/><path d="M1356,157L1336,335L1374,437Z" fill="#808080" stroke="#808080"/><path d="M-47,258L-77,461L-54,350Z" fill="#9e808c" stroke="#9e808c"/><path d="M-47,258L-54,350L51,338Z" fill="#ad808e" stroke="#ad808e"/><path d="M-47,258L51,338L54,282Z" fill="#b9828e" stroke="#b9828e"/><path d="M54,282L51,338L120,342Z" fill="#cb8793" stroke="#cb8793"/><path d="M54,282L120,342L133,222Z" fill="#d48a90" stroke="#d48a90"/><path d="M133,222L120,342L262,334Z" fill="#e19d9c" stroke="#e19d9c"/><path d="M133,222L262,334L280,282Z" fill="#e9ada0" stroke="#e9ada0"/><path d="M280,282L262,334L330,336Z" fill="#f2c0b3" stroke="#f2c0b3"/><path d="M280,282L330,336L352,235Z" fill="#f6c9b6" stroke="#f6c9b6"/><path d="M352,235L330,336L419,356Z" fill="#fad6c5" stroke="#fad6c5"/><path d="M352,235L419,356L467,231Z" fill="#fce0ce" stroke="#fce0ce"/><path d="M467,231L419,356L540,248Z" fill="#feeee0" stroke="#feeee0"/><path d="M540,248L419,356L575,338Z" fill="#fdf2ec" stroke="#fdf2ec"/><path d="M540,248L575,338L667,273Z" fill="#fafbf7" stroke="#fafbf7"/><path d="M667,273L575,338L638,361Z" fill="#f4f8fa" stroke="#f4f8fa"/><path d="M667,273L638,361L744,338Z" fill="#ebf4f8" stroke="#ebf4f8"/><path d="M667,273L744,338L721,248Z" fill="#e6f1f4" stroke="#e6f1f4"/><path d="M721,248L744,338L819,256Z" fill="#d8eaef" stroke="#d8eaef"/><path d="M819,256L744,338L869,364Z" fill="#cae3ef" stroke="#cae3ef"/><path d="M819,256L869,364L960,282Z" fill="#b3d5e6" stroke="#b3d5e6"/><path d="M960,282L869,364L980,355Z" fill="#a0c9e1" stroke="#a0c9e1"/><path d="M960,282L980,355L1060,357Z" fill="#97bddb" stroke="#97bddb"/><path d="M960,282L1060,357L1084,254Z" fill="#93b6d6" stroke="#93b6d6"/><path d="M1084,254L1060,357L1137,350Z" fill="#8ba9c9" stroke="#8ba9c9"/><path d="M1084,254L1137,350L1137,231Z" fill="#88a3bc" stroke="#88a3bc"/><path d="M1137,231L1137,350L1241,258Z" fill="#8297ab" stroke="#8297ab"/><path d="M1241,258L1137,350L1263,341Z" fill="#7f8ea2" stroke="#7f8ea2"/><path d="M1241,258L1263,341L1336,335Z" fill="#80808d" stroke="#80808d"/><path d="M1241,258L1336,335L1321,216Z" fill="#808081" stroke="#808081"/><path d="M-54,350L-77,461L65,439Z" fill="#8e788e" stroke="#8e788e"/><path d="M-54,350L65,439L51,338Z" fill="#b48190" stroke="#b48190"/><path d="M51,338L65,439L120,342Z" fill="#c88893" stroke="#c88893"/><path d="M120,342L65,439L162,453Z" fill="#bd8595" stroke="#bd8595"/><path d="M120,342L162,453L232,420Z" fill="#ca979d" stroke="#ca979d"/><path d="M120,342L232,420L262,334Z" fill="#e4a7a2" stroke="#e4a7a2"/><path d="M262,334L232,420L343,435Z" fill="#dfb9b0" stroke="#dfb9b0"/><path d="M262,334L343,435L330,336Z" fill="#f2c7b8" stroke="#f2c7b8"/><path d="M330,336L343,435L419,356Z" fill="#f5d5c5" stroke="#f5d5c5"/><path d="M419,356L343,435L476,418Z" fill="#e6dbd3" stroke="#e6dbd3"/><path d="M419,356L476,418L575,338Z" fill="#fbf0e8" stroke="#fbf0e8"/><path d="M575,338L476,418L564,471Z" fill="#e3f0f2" stroke="#e3f0f2"/><path d="M575,338L564,471L638,361Z" fill="#ecf8fb" stroke="#ecf8fb"/><path d="M638,361L564,471L658,456Z" fill="#d0effa" stroke="#d0effa"/><path d="M638,361L658,456L744,338Z" fill="#e1f2f8" stroke="#e1f2f8"/><path d="M744,338L658,456L760,458Z" fill="#c4e8f6" stroke="#c4e8f6"/><path d="M744,338L760,458L869,364Z" fill="#c4e4f1" stroke="#c4e4f1"/><path d="M869,364L760,458L822,468Z" fill="#a3d9ef" stroke="#a3d9ef"/><path d="M869,364L822,468L978,426Z" fill="#91cce7" stroke="#91cce7"/><path d="M869,364L978,426L980,355Z" fill="#97c7e1" stroke="#97c7e1"/><path d="M980,355L978,426L1060,357Z" fill="#8fbada" stroke="#8fbada"/><path d="M1060,357L978,426L1064,465Z" fill="#75afd8" stroke="#75afd8"/><path d="M1060,357L1064,465L1166,427Z" fill="#6da2c8" stroke="#6da2c8"/><path d="M1060,357L1166,427L1137,350Z" fill="#81a2c0" stroke="#81a2c0"/><path d="M1137,350L1166,427L1263,341Z" fill="#7d93aa" stroke="#7d93aa"/><path d="M1263,341L1166,427L1261,417Z" fill="#6e869d" stroke="#6e869d"/><path d="M1263,341L1261,417L1336,335Z" fill="#7d808b" stroke="#7d808b"/><path d="M1336,335L1261,417L1374,437Z" fill="#6e7c80" stroke="#6e7c80"/><path d="M-77,461L-80,682L-50,546Z" fill="#313a6f" stroke="#313a6f"/><path d="M-77,461L-50,546L65,439Z" fill="#5f5e86" stroke="#5f5e86"/><path d="M65,439L-50,546L76,531Z" fill="#625683" stroke="#625683"/><path d="M65,439L76,531L127,528Z" fill="#775f88" stroke="#775f88"/><path d="M65,439L127,528L162,453Z" fill="#926f8e" stroke="#926f8e"/><path d="M162,453L127,528L278,559Z" fill="#867291" stroke="#867291"/><path d="M162,453L278,559L232,420Z" fill="#9f8d9d" stroke="#9f8d9d"/><path d="M232,420L278,559L343,435Z" fill="#aca2ab" stroke="#aca2ab"/><path d="M343,435L278,559L358,526Z" fill="#9b9eae" stroke="#9b9eae"/><path d="M343,435L358,526L417,539Z" fill="#a2adbb" stroke="#a2adbb"/><path d="M343,435L417,539L476,418Z" fill="#bcc7cd" stroke="#bcc7cd"/><path d="M476,418L417,539L564,471Z" fill="#b5d1df" stroke="#b5d1df"/><path d="M564,471L417,539L583,538Z" fill="#9ec3df" stroke="#9ec3df"/><path d="M564,471L583,538L658,456Z" fill="#a7d5f1" stroke="#a7d5f1"/><path d="M658,456L583,538L671,529Z" fill="#97caec" stroke="#97caec"/><path d="M658,456L671,529L760,458Z" fill="#9dd2ef" stroke="#9dd2ef"/><path d="M760,458L671,529L745,535Z" fill="#86c2e8" stroke="#86c2e8"/><path d="M760,458L745,535L822,468Z" fill="#83c4e9" stroke="#83c4e9"/><path d="M822,468L745,535L840,578Z" fill="#6bafde" stroke="#6bafde"/><path d="M822,468L840,578L934,532Z" fill="#58a3d7" stroke="#58a3d7"/><path d="M822,468L934,532L978,426Z" fill="#61b0dd" stroke="#61b0dd"/><path d="M978,426L934,532L1042,549Z" fill="#4095d0" stroke="#4095d0"/><path d="M978,426L1042,549L1064,465Z" fill="#4897d0" stroke="#4897d0"/><path d="M1064,465L1042,549L1125,533Z" fill="#2f7cbf" stroke="#2f7cbf"/><path d="M1064,465L1125,533L1166,427Z" fill="#4086b9" stroke="#4086b9"/><path d="M1166,427L1125,533L1255,582Z" fill="#23659d" stroke="#23659d"/><path d="M1166,427L1255,582L1261,417Z" fill="#376c96" stroke="#376c96"/><path d="M1261,417L1255,582L1326,555Z" fill="#214e7d" stroke="#214e7d"/><path d="M1261,417L1326,555L1374,437Z" fill="#3c647a" stroke="#3c647a"/><path d="M1374,437L1326,555L1327,646Z" fill="#174269" stroke="#174269"/><path d="M1374,437L1327,646L1362,769Z" fill="#121e3b" stroke="#121e3b"/><path d="M-50,546L-80,682L72,659Z" fill="#3f1841" stroke="#3f1841"/><path d="M-50,546L72,659L76,531Z" fill="#513568" stroke="#513568"/><path d="M76,531L72,659L138,654Z" fill="#642951" stroke="#642951"/><path d="M76,531L138,654L127,528Z" fill="#6b4172" stroke="#6b4172"/><path d="M127,528L138,654L278,559Z" fill="#765075" stroke="#765075"/><path d="M278,559L138,654L261,665Z" fill="#7b475a" stroke="#7b475a"/><path d="M278,559L261,665L374,656Z" fill="#865d6b" stroke="#865d6b"/><path d="M278,559L374,656L358,526Z" fill="#8b7f94" stroke="#8b7f94"/><path d="M358,526L374,656L417,539Z" fill="#8e8ea5" stroke="#8e8ea5"/><path d="M417,539L374,656L484,664Z" fill="#8f8090" stroke="#8f8090"/><path d="M417,539L484,664L583,538Z" fill="#91a1bf" stroke="#91a1bf"/><path d="M583,538L484,664L570,652Z" fill="#8e94ae" stroke="#8e94ae"/><path d="M583,538L570,652L635,677Z" fill="#8b96b2" stroke="#8b96b2"/><path d="M583,538L635,677L671,529Z" fill="#87a8cf" stroke="#87a8cf"/><path d="M671,529L635,677L741,622Z" fill="#7e96b9" stroke="#7e96b9"/><path d="M671,529L741,622L745,535Z" fill="#78aada" stroke="#78aada"/><path d="M745,535L741,622L840,578Z" fill="#689aca" stroke="#689aca"/><path d="M840,578L741,622L859,635Z" fill="#5c84af" stroke="#5c84af"/><path d="M840,578L859,635L934,532Z" fill="#4886bd" stroke="#4886bd"/><path d="M934,532L859,635L969,675Z" fill="#386ca1" stroke="#386ca1"/><path d="M934,532L969,675L1045,620Z" fill="#2d629e" stroke="#2d629e"/><path d="M934,532L1045,620L1042,549Z" fill="#2a74ba" stroke="#2a74ba"/><path d="M1042,549L1045,620L1125,533Z" fill="#2267b0" stroke="#2267b0"/><path d="M1125,533L1045,620L1137,671Z" fill="#1d4a88" stroke="#1d4a88"/><path d="M1125,533L1137,671L1235,643Z" fill="#15386e" stroke="#15386e"/><path d="M1125,533L1235,643L1255,582Z" fill="#133e77" stroke="#133e77"/><path d="M1255,582L1235,643L1327,646Z" fill="#121b46" stroke="#121b46"/><path d="M1255,582L1327,646L1326,555Z" fill="#132a52" stroke="#132a52"/><path d="M-80,682L-38,746L72,659Z" fill="#3e0011" stroke="#3e0011"/><path d="M72,659L-38,746L66,722Z" fill="#4d0411" stroke="#4d0411"/><path d="M72,659L66,722L138,654Z" fill="#610a23" stroke="#610a23"/><path d="M138,654L66,722L151,734Z" fill="#680d16" stroke="#680d16"/><path d="M138,654L151,734L261,665Z" fill="#732129" stroke="#732129"/><path d="M261,665L151,734L281,735Z" fill="#792f26" stroke="#792f26"/><path d="M261,665L281,735L374,656Z" fill="#844540" stroke="#844540"/><path d="M374,656L281,735L326,782Z" fill="#854c3c" stroke="#854c3c"/><path d="M374,656L326,782L436,743Z" fill="#895949" stroke="#895949"/><path d="M374,656L436,743L484,664Z" fill="#8d6560" stroke="#8d6560"/><path d="M484,664L436,743L517,773Z" fill="#8c6f66" stroke="#8c6f66"/><path d="M484,664L517,773L570,652Z" fill="#8c7471" stroke="#8c7471"/><path d="M570,652L517,773L620,763Z" fill="#8a7a78" stroke="#8a7a78"/><path d="M570,652L620,763L635,677Z" fill="#877a7c" stroke="#877a7c"/><path d="M635,677L620,763L727,731Z" fill="#7d7679" stroke="#7d7679"/><path d="M635,677L727,731L741,622Z" fill="#787388" stroke="#787388"/><path d="M741,622L727,731L859,635Z" fill="#656f8d" stroke="#656f8d"/><path d="M859,635L727,731L838,777Z" fill="#5b6470" stroke="#5b6470"/><path d="M859,635L838,777L969,675Z" fill="#415469" stroke="#415469"/><path d="M969,675L838,777L963,780Z" fill="#344c63" stroke="#344c63"/><path d="M969,675L963,780L1082,749Z" fill="#263d5b" stroke="#263d5b"/><path d="M969,675L1082,749L1045,620Z" fill="#233765" stroke="#233765"/><path d="M1045,620L1082,749L1137,671Z" fill="#1c2b58" stroke="#1c2b58"/><path d="M1137,671L1082,749L1128,757Z" fill="#172542" stroke="#172542"/><path d="M1137,671L1128,757L1231,769Z" fill="#111932" stroke="#111932"/><path d="M1137,671L1231,769L1235,643Z" fill="#0f112a" stroke="#0f112a"/><path d="M1235,643L1231,769L1327,646Z" fill="#10021c" stroke="#10021c"/><path d="M1327,646L1231,769L1362,769Z" fill="#0e0005" stroke="#0e0005"/><path d="M-38,746L326,782L151,734Z" fill="#6b151a" stroke="#6b151a"/><path d="M-38,746L151,734L66,722Z" fill="#550613" stroke="#550613"/><path d="M151,734L326,782L281,735Z" fill="#7b362b" stroke="#7b362b"/><path d="M326,782L963,780L838,777Z" fill="#737278" stroke="#737278"/><path d="M326,782L838,777L517,773Z" fill="#897977" stroke="#897977"/><path d="M326,782L517,773L436,743Z" fill="#8a6457" stroke="#8a6457"/><path d="M517,773L838,777L620,763Z" fill="#7c767a" stroke="#7c767a"/><path d="M620,763L838,777L727,731Z" fill="#6f6f76" stroke="#6f6f76"/><path d="M963,780L1362,769L1231,769Z" fill="#0d152c" stroke="#0d152c"/><path d="M963,780L1231,769L1128,757Z" fill="#172745" stroke="#172745"/><path d="M963,780L1128,757L1082,749Z" fill="#1d3255" stroke="#1d3255"/></g></svg>